/* XPM */
static char *result[] = {
/* columns rows colors chars-per-pixel */
"64 64 13 1 ",
"  c #980030",
". c #990030",
"X c #990130",
"o c #990031",
"O c #990131",
"+ c #B4B4B4",
"@ c #B5B4B4",
"# c #B4B5B4",
"$ c #B5B5B4",
"% c #B4B4B5",
"& c #B5B4B5",
"* c #B4B5B5",
"= c gray71",
/* pixels */
".....X........ ...X.. oo....oo.. ...X.O......o..........X..o..X.",
"X++#+++%%+++++@++@++++++++&%@++++++#++++++++#+++%+++++%++++++++.",
".@+++%#+++++%+++#++++++++%++++++%++@+@++++#++@+++++++$+#++++@+#.",
"o#++@+@#%@+++++&+++++++++@+++++++%#++#+++++++++++%+++++++++#+++.",
".+++++++++&++++++++@+++++%++#+@+++++++++++++@+#+#+@+%#++%++++++.",
".+%+++++@+@+++++%++++%+++++$+++++++++%++@%+%++++++#+++#+++%#+++.",
".#+%+++++++%%++++#%@+#+++++++++@++*++++++@++++%%@+%#+++++++@+++.",
"o+++@+++++#%+@++++++++%++@+++++++@@++++++%++++++++++++++#+++++%.",
"X+@#@+++++++++++++#++%+++#+@+++++++++++@++++@+@++@#+++++@++++#+X",
".%+$++%+%%+@+%+@++#++++@+&+++++#%%++%+++++++++&++#+++++@+++++@+.",
".++@+#+++++++@++++++@#+@+%+++++%%++++%++++@+++++++&+++&+++++++#X",
"o++++++++%++*#%++#++++++++%+%+++++++#++@++++#@+++#++&++%++@++++.",
".+#++@#+++++#+++++++++++++++&+++#+++$+@+++++++++++++%++++++++++ ",
".+++++%++&+++++++++@++@%+++##+%%++++%#++++++++@+@+#++@+#++++++@.",
".++++++++@#+%+++++++@%#++++%++#+++@++++++%&+++++++%++#+++++++++o",
".+%+++++++++++++#+++++++++++++##++++++++%++++#++@++++%+#+++#@@+X",
".@++@#+++++++@++@+++++@+&+++++++++++#+++++@@+++++++@++*+++++@++.",
".++++++$++++++#+++%@+++++$+++#++++%++&++++#++++++@+@+++++++@+++X",
".+#+++@++++#@+++++@+$+@++%++++++@++%+%+++++++%+#+++#+++++++++#+.",
".%+%+++##++++%++++@+++#++++++#+%++++++&+@++%+%@++%+++++++++&++#.",
".+++++@+++++++@+++++#++#@%%+++%#++#++@++++++@++#+++%+++++++%+++ ",
".#+++++++%+++++++@++++++++++++++++++%++++%++%+++++%++++++#+++%%.",
"X+@++++++++++#++%+@++++%+&+++++++++%++%#@++++++%+##+++++%++++@+.",
".%+%+++++++%@@+++++++++++%+++++++#+%+&@++%+++%++#++++@%+@%+%+++.",
".%++#++@++++++++++++++++%++++#+++++%++++++++%+@+++++++#++#++@++.",
".++#%+++#+++++++++++@++++++@+++%+++@@+++++++++++++@++*++++++++%.",
".+++++++++%%++++++%++#+++++++$+++++++++++++++++#%+%#+++++%++++#.",
".+++@@++++#++#+#++++++%+#%++%+++++@@+%+++%%+@++@@+%+++++@#++%++.",
".++#+++@++++++++++%+++++%+++%++@+++++@+++#@@++++++++++%++++++@+.",
".@++%+++++++@+++++++%+++++++++++++++@+%++++++#+%++@+++++%+*++#+.",
".+++@%+++++@+%#+@+++&+++++++++++%++++%#@++++++%+%%++++++@+++#++X",
".*%++++++++#++#+++++++@++++%++#+%+%+++++#+@+++++@+++++%++++++++.",
".+%+++++++++++%+#++%+++++++&+++@+@+#++++#++++&%+%+#%+%++#++++++.",
".+#@++@+++++++++%+#+++++++++%++++++%+++@#@++*+@++#+++++%++@++++.",
".++++++++#++++**++@+++%+%++++++++@++&++++++++%++%++&+++++%+++++.",
".+#+++++++@+++++++++#@++%+++++++++%+#++@%++%++++@+#++++#+++#+++o",
"o+++#@+++++++#%++++++++++++++++++@+++@%%#+++++++++@++++++@+++#@.",
".@++++##++++++%+++%++++++++++++*++++%+@%+++++++@+++@+++#+++++%#.",
".+@+++++++++++&+%%#++@++++++++++++++#++++++#+++%++@++++++++++++.",
".+++++@@+++++@++#+@+#%+#++@+%+++++@%++++@+@+#+++++++++&+++%%+%+.",
".+++++@+++++*++++++++++++++#+++++++++++++#+%#++++@@+@+++#@+++++.",
".#+++++++%++++++++++++#+++++++%++++%@+%++++++++#+++%#%++$++++%+X",
".+++++++++++%@++++#++++@+++++++#+++@++++#++++++++++@%%#++@+%%++.",
".%+@++++++@+#+++++@+#+#++++&+++++#++++++++++++++++++#+%+&+++#++.",
".+++%+++++++#+%++%+%+++++++%+++++%++@@+%%#+#+#+%+@++#+++++@++#%.",
".+++++%%++%++++++@+++++%+@@+++++++%+@+++++@%%+#++%#+++++#@++@++.",
".+#++++++++@++@@#++++@+%+++++$++++++++%++@+@++++@++++++#++++++%.",
".+#+++%+++@++@+++#+++++++++++++*%++++++@+++++++++++#%++&+++++++.",
".+++++++@%+++++@#+++%++++%+++++++#+@+++++@%+++@%++@++++@+++%+%+.",
".++++++#+++%++++++++++++%@#++#*++#++#+++++++++@+++#@+++++++++@%.",
".+++@+++#+++#++++++&+%+#++++#++++++++++&+@+++++$++++++++%++++++.",
".++%+++#+++++++++++++++&@++++++++++++++++%++++++++++++#+++@++%+.",
".++@@+++++++@+++++++++#+++@+#++++++++##++++@++++++%+++++++++@++.",
".++++%+++++++++$++@+++$%++%+#+++++%++#+%+++++++@@+++++++++#+#++.",
".+++#%####++++++++%@++++++$++#+++#+*++++#++#+++++@%#$++++#++@+%.",
".#++#++@+++++++++++%@@@+@++++++%+@++@+++++++++%%+++++++%%++++++.",
".+++++%++%++#+++@$++%@++++++++#++++#+*+++++%+$+@%+++++++*+%++++.",
".+%++++++++@+++++++=++@+%++++@+++#++++++++#%#%%++++%+#++++%++++.",
"X@++++#++%++++#++++@++++#++#+++++++++++++%+%+++++@+++++#@+++@#+.",
".+#%+++++@+++++++++@++++++#++%+#+++#++++++#+++++#+++$@+#%#++#++.",
" +++++++++@%+%+++++++++#+++%#++++++++++++@++++++++++++$++%+++#+.",
".++++++%+++++++*#++++@++#+++@+@++++#+++++#++++#@+#+++%++++@+%++o",
"X++$++#++++++++++++++++&+++@++++++++++++++#+%++++++++++$++@%+%+.",
" ......... ..........X.....o.X..X..... ......X....XX........ ..."
};
