/* XPM */
static char *result[] = {
/* columns rows colors chars-per-pixel */
"64 64 14 1 ",
"  c #FEF200",
". c #FFF200",
"X c #FFF300",
"o c #FEF201",
"O c #FFF201",
"+ c #FFF301",
"@ c #FEA2B0",
"# c #FFA2B0",
"$ c #FEA3B0",
"% c #FFA3B0",
"& c #FEA2B1",
"* c #FFA2B1",
"= c #FEA3B1",
"- c #FFA3B1",
/* pixels */
".......................................X...o....... .O... X...X.",
".--*$-----*----$-----=$---=-%-=---------#----------=**-------=*.",
".%-*%-%=-$----=------*--*#--%----------*------------%---%%%--=- ",
".----------------*=%-*--=---%--*%=-%---=---=-%=#-&-*--=---=----X",
".**--*-%*--&-**-----------=-%-*-=--=-$=-%=-=----*$*$-===-*-%=*=.",
".--=-----%-%-----=------*-------=----%--%&--%--=--*#-----------.",
".-=------=--%--------%*-*-*--*-=-&----%-=%*%*---*-----*--------O",
"O-%--------------=-%%-*$--=*%-***-*---------%-%-%-=-$-------*-%.",
".-*----*-----*---=-=*=----=-*$--=--%%--*-%=-----*=-=%--%-------.",
".-=--------%$---=----%-=%---------=-*--@----%#-----=-=%*--%%-**.",
".*----*------%%------*-&*------*===---%-$%-------=----=--=%----.",
" %-=-*--%-------%--==-%-%*---%*-=*----*=--=---*-----=--**=*--%*.",
".%*%%-%------%-%%--*--*--%---*%--$-=%-----=-*-=*%*-=*-%--$-=---+",
".---*--*-**--------%*=#---%-%--------*-%-**---*-%-------=%%%=-%.",
".&--=--$*-=-----%------*-=---#--*=--&-*--#--#-*----#-#*=$-#-%-=.",
"O---=#------=----*-------=-%%---%--------$------=----#---&---=-.",
".--=-%%-%=%---*-%----#----*--%-=--%---$*--=---&----%--*%=-$%---.",
" -----%-%-----%----*=-*------*---%-=**=-%-#----*%-%*=-------%--.",
".-%-*---=%----%----%===*-*-*-%*==---------*--=-=%----=--%*----%.",
".-%-$*--**--%-*=-%----=&*-=%--=--%---%*-*--==*--%=-=*%%*-----=-.",
".--%%=----*--=%---#---%%--==--*-%----=-=--%---==%-%=--%---=#*--.",
".-%-=---%--==-*----=-------=%=-*---%-------=----%$%=-%*-------*.",
".--*%--=-*--#%=-----&-*--=*------=----&-------*----*-=----*%---.",
".-=--**--%--=#%--%----------%--%-*-*%----=----*---$-*=----=%%*-.",
".--*--**-*-=--*=---=------=%%--=%*----&--%--%=*-#-----=-=--==--.",
".--%--*--%%-=----=--*----%=---*----%-%*-##--&*-%--=-*--$------=.",
".--=*-=-=-%=------*=-=-*-==-%------*--*$$=**&$*--%--=-%*--%----.",
".=--=--------$----*=-$--%-=*-#-------------*-=--&*=-%--=----==-.",
".--%*-=-==-*---=-%---*--=-%--%----%--%#---*----%*---*-----&---$X",
".=-=----&=-=------=-*-%%-*-=--@*---%--%--%-&*%-%--=-#---=-=--%-.",
".*---%*---*-------*------*-=&----$*=%--%-------%---*--%%**=---- ",
".---%------------%*---=----*---------=---&==-#----$-=-&%-*%*---.",
".%%----==-=------%---%---=%--*---%---***------==---*--**-------.",
".*=*=*-*----=--=---------%--------------%%--*--%==-*--**---*---.",
".*=------------%--=**-----$==%=------*--*--*----=---%-=%-$-----.",
".-=-----=%---**#%%--%#*--=----*%--*-%----*-*-*=--------%%-----=.",
".-*--==----------%=---------=-----*----%$-%--*-%---#--=$--=%-=-.",
".%-=-=-%----=----%--%-------==-----%------%%-*-----%--------@-%.",
".*-*---&%----=-%&*-----*------=---=*%=----*%-==*-==----$---%-*-.",
".=-*=%---#&-%---%-#-%---%----%--*-----%--#---==---------=*$----.",
".------$*-------=--#-%-------*--&------*---%=-----*--&-=---=---.",
".-*-=----*-&-$---*--*---*--*%--%-==-%--*-%----%------#---=---*-.",
".----*---*-%-*--%-=*--*-%-=%-=--%--*---=---%---%--=-----*-%----.",
".=--=-@---*--------%---=*%*%-----%---%--*--#---%-%&*---------=-.",
".=---*=$-------==--$--*=%*&=%=-----=-=--*---*%--=-%-&------%-*-.",
".*%------%--%--------*$=&-*%-=----%=*-*=-%%-------=-#---=-----% ",
".-*-%=-=---%-=%=*---**--*------=-*%%%=-&---=-*=--%-----*-%=---%.",
".%--&----*-*--#---$-%----=-----=--=-----=-%--=----%-%-%%--%=$--.",
".=--*---*----=*%--%$--*--=-%-$-=-%%--%&--#--------------%-%--=-O",
".-*=---%-=---&----$--------=----%-%-*--%%-*=-*-=-*---=*=*------.",
".---$*%-*---#-%-----=---*----%-----%-%---%-=--%%-%---=--%----=-.",
" --#-------%-=--=--------=----%---%-%#=-*---%-*-------------==*.",
".----*-=---%*---=--*-=-*--=--*---*%-==*-$------=-%*---=%*=-=%--.",
".----%*--%--%%-=*%=-----===----------=%---%-%%-=-**-==--%=----*X",
".-------=*----&----%----*--$--------#-----&%&%---&-%%--*-%-==--.",
".---------*-------=#-#=---%---%-=-#----%---=-%---%----*---$--$=.",
".---=-#-----$#-*#------%----==*--------%-%*--#--*=-%-%-----%---.",
".*--=------*==#-----*--$--*----=-#-%---*=------==-=-=--------%% ",
".----%#---%--%----%-**$=-----#=----=----%---*----=-%---=---%*--.",
".*-------------*------$---=--*-$%----=----$--------*--%---*---- ",
".=------=-=---%-----*--------------&---%------*%*-*----&-%%----.",
".=---%&--=-$--**----*---------%-%-----$%---%-%*-=-*----*-=-----X",
".--=*---%--------=-%=-%-%------------$----*=----%---%%-=----=--.",
".X..........X......X...X... .O......o....X..O. ................."
};
