/* XPM */
static char *result[] = {
/* columns rows colors chars-per-pixel */
"64 64 16 1 ",
"  c #4C6CF2",
". c #4D6CF2",
"X c #4C6DF2",
"o c #4D6DF2",
"O c #4C6CF3",
"+ c #4D6CF3",
"@ c #4C6DF3",
"# c #4D6DF3",
"$ c #98D8EA",
"% c #99D8EA",
"& c #98D9EA",
"* c #99D9EA",
"= c #98D8EB",
"- c #99D8EB",
"; c #98D9EB",
": c #99D9EB",
/* pixels */
"##+o+#.+@.##+#@######+X##+O@#+@o#o#O#+###+##o##O#o###o##@+o#oo##",
"#:***&*&&*&&*&*:*%*&***%&**+#####+o###********%*%****%***%&**::#",
"#**%**:&***%**:*******%####**&*:$*****#o#o**:%%********&&&***;:#",
"o**&*:***::*********###&*%*******&*******:+oo&::*&**-%%*%*&**%*#",
"#******::-*%&**$*%##***&&*&****&**:-***:***&*##*-*$%*&****;*%**+",
"+:*&-*%%%*******+@**&****$&:**%%*%***&%*%******##*:*******:%*:*#",
"o****%&;**&*%*:#&**=***::*********&*********%****@%*****%******#",
"o**:*&*&&*****o&****-********&***%*&**%*:-**&&**%$+**-&*%*%-*&*#",
"o****&******+#::***&***:**********:&;:*:**&:***&***#o*&**$*-**:o",
"#****&***:*#*********%*:*******&&**%;:-&%*:*******:*&@**:******@",
"#*&*****::#***&%********$*%:@+#######&***&%%*****&:**-#*&**&%*&o",
"#***&:**&+**%*****&**%***###****&**;%+oo*%**&*******&:*#*%*****@",
"o:**&*&*#&%***%%*:**:&###&***:**%%***&&*###&*%%***:*****#*&*:%&#",
"@**:**&&o******:***:*#*&****%&*&***%**-****#****:&******#:*:%**#",
"@&*****o********%**##::*%*:**:**:*&***:;*%**Xo&:-&*%*****#:****.",
"#*%***#*:*********#*%******%**%******&****%%**#:*:&*******#%*$%#",
"o*;**#;&**:******#***:**&*****-**:*****:******%#***:%******#*&;@",
"#***%#%&%%*&;**%#*********%***%*****:**:*****%**#*****&&***#*;:@",
"+***#****&:**$*#****%*********$&:*%***&*:**&%****#***:***$&*#**#",
"#%**#%&*%%*%**#**:***&******&*:*%****%**%*%*****-*+*:*******#**X",
"#&*#*%***%*&*%#$:*&**:&**%**:*******%:*:*&****%*%*#%%::&***:%#*#",
"o*&#*&:**&***+-*%*:**:*:;**&****&=***%********:**&%#*****:***#%#",
"#**#%&%&***:o***&**&*%**&**&***%%***:******$****:***#**:*$***o%#",
"O*o**:*%*%*%#&**&**:*:**%::****%:***&***%**;**:****;@*****%**&#+",
"o*#**%****::+**%*$*%$:*****$*&***$******:**%%*$**%**O**$%*&**%##",
"+:#&*******#$&********%$***:%*****:&%:******%$*******+***$*:;*##",
"O*#***:*%**#:********:*******%*:*:*****:**%:**&***&**#&*****:*@#",
"##%********#*&*:********::&&%**%:*:**%*********%****:@**:%*****#",
"@@:****:**#*&****%*:*****&**-%***:%*%%&***&**:;****::$#****%%**#",
"##**:***%*#*&*%:***&**:***:*:***:;*:*&***&******&**%**#**%&&**;+",
"o+*****%%*#***:*:*&*%*&********%**&*:*:*%:*****&%*****#*****%&*#",
"#o&*%%****#**&*&:***%*&*%**%***********&:*%%**&&*:****#***;&:**#",
"++**::****#*&:*******:&**%**-*******%:*:***:*:**:&;:**#*****%*:o",
"#@*%***&**#*%**%%***:&:**:*******&****:*:*******&%****#%***&::*#",
"##**;&*;;*#&%*&**:*;*&***%&***&***********:*&%&****:%*+**-***&*o",
"+#**%&*:%&#:**:%*&*&***:*%*&:*********&&***%:*;:******#**-:&*-*#",
"o@%*:&$$*%#**%*%%&*%&:****%**&*-****%**%*&&;**%**&*$&:#*****:-*#",
"##***&*:*&*#*::%***&***&&*:**$*%***********:**%**;%&*#*&&***&*&+",
"#*o%;***-**#%%**&*%**%:**%*$&%:*%:*::&**%%:&*******:%#:*-****&##",
"O*#********#*$***%*&***::**:***:**;**&:*%******:**%**#***:&**%##",
"+&#***%%***&#**:**%******;***&%**:***%&****:*%***$&*#***:%****o#",
"X*#***%***$*#**$:*:%;********:%%**;$****::&****&$*:-#*%*&*&***##",
"#**#**::****#*****:*****&*%&&*%********:*&:**$**:&**#&*;**:**#:#",
"#&:#**$*%****#******:=*&%***%**:&&********:*:&*&%*:#&***&%;*%#*#",
"#**#*%*:$:-*&&#&***********%*:*:-*****-******::&&*#*&*%***:%&#*#",
"+**%#*&::*****#**&**%$*****&:***%*******&*%*%**:%* *******$:+**o",
"O$*%#***:%**&**#***&%**&*%&**:**%**&*&*****:**:*%#******%&**o**#",
"#&***#**:*******#-*:**;*%*$***%*:*%*&*%*&:*&*&**#***:******#*$&#",
"X%%*&@&*;*&&:*%**#:**%**:********;*$***;**%:***#&*****%*-;:#:**+",
"o*:%**#%*****:**;-#**%***;**%**%**$*&**::%*%:*@*$**%******#&**&#",
"#%$::*:o&*********%##%***;:****:******;%**:*+#&**&***&***#:%*%:#",
"+*-***%*#*%***&%*:%*:#*:****:******:****::*#%**%**%:****#*%****#",
"+:***%%*#***&*&**&*&:*##@&**&:**-*******###******:******o$%****+",
"+*****&**#**%**:*::%*****###****&-*-*###***:****&*****%#:****&*+",
"#:**;&****#*&**%:******%**:*#@#######**:************%*+%*:****%+",
"+***:*:*:*%@*:****%***%:**********&**%*%****::&****&*#****&*&**+",
"+****:&&*&;*##**%**:*%******:***%*%***-***&*%****::##*&**%*****#",
"@%&%%**;*$%***#%**%%*:*&%***;&$:***-**%*%%%:**&*%*#*:*::*****%-#",
"@**&**%*&=&&%*:#:***&&**%*%%%*******:*%**&***%**:O***=%**:*****#",
"+*****:::**;****o@****&****:**&***&*%*;********##*%*:***%*%**:*+",
"#:%*&*********%&:&##**%&***%:%****%&:*****:&:#o*::**&%*-&******X",
"+***%=%%:**$&:**&*&;##@*$*****&%&***:%****###**%*:******&**%***#",
"#*&*&:*****$**&:***%***@##o%******:;*&o#@+*%%*:&:*&****:*:**%**#",
"##@#####.#@##@##@O+###@.#X####++###@#o##@+#####@+###@o+@o#+o#.o."
};
