/* XPM */
static char *result[] = {
/* columns rows colors chars-per-pixel */
"64 64 16 1 ",
"  c #FEC20E",
". c #FFC20E",
"X c #FEC30E",
"o c #FFC30E",
"O c #FEC20F",
"+ c #FFC20F",
"@ c #FEC30F",
"# c #FFC30F",
"$ c #B4B4B4",
"% c #B5B4B4",
"& c #B4B5B4",
"* c #B5B5B4",
"= c #B4B4B5",
"- c #B5B4B5",
"; c #B4B5B5",
": c gray71",
/* pixels */
";;&:&:-:&**;;$%$&;%;=**--=%&$=:=::-:%=$;;%%-;=:-$*=*-&=**$*%$:$%",
"-%==&:;;=;;$-:;&%;*&*&;:-%$&%%-%&-$%%$:=;-%%;=&&&:$-:%;;-$=:&:-%",
"=*$*%:=%:%:$%:$:$%%=*&=%$&-:&&*&$%%*:$:==;$:&&%**=$-::%$-&%;$%*&",
"*-&-*-;:;%;&=*;:&:::%&:;%%=:=$;%&&-%:%;-$;;;-%*==$*&*=$$=*&=%=*:",
"$$:%$*;=:$%$&&$$-;$==$&-$*$%;=$;=&$$%*%:*$=*-:$$;&:=%&=%=::%-$*:",
"-&&==;&$:&&%*%%=*==:=:--*:%*$$&-=;**$$%:*;*:-:&-$:%%%:&%$:$&=*%%",
"*%$;-=:$&-%:**==:=*%%-;$::;=:$-$-%*;:;:%&;&-;-*;%-$-=%=:$%;&%-&;",
"=*;*&;:%**&%=-*$*-$;$$=&$-:-;;*%:$:==*-&*$*%:%;*:-:%=;$%-;%%$$$=",
"$-:=*-$*&$;*=%*&-$*$::-::*&;-*$--%:$&%:%-$&-%**=%$:%%&$;::%=$$;-",
"%=-;=;%;$;%&&-==%%%:&&&**$*$%$:=$%&&&-;&=&$%;=:=-%%*$&=**$$$:-==",
"**-=&**;;:-%*$:*$;$==$==-$:--&&--%%-&-:-*;:;%;;*$;*&$%$%:&$-%:-=",
"&$---%%=$$$::=-;$*-$;&=-;%*-:=&;:$%-&*;*-$=*&=&;$;*%:;$&%:%*&=-&",
"$-;&&==:;-=$:$$;*$&;;*-&*-$-:-%=&-=%-;:=*;$*===%*$&--%-*%$:&-&;$",
"-$%=$$$;;%=-*%-*=;%&$:;:;&:$:@#+ . O%;$-*::$&**;--$%-%&:&&=*&%:*",
";-$*=$;&:&=;&**$*%-&-$*;$:$.O#O o+ Oo+&;=&==&;&-&%;$;:-*&%&$$:--",
"*$&:=;$%;*:&:$::=-=&;%$=*  o@ ..X.@..OOo%%%=;%$:$-=%:;=&-==%:$$-",
"&%*&%=$;%::;&--$$=$%;::&o..+O;:=&=&: ##.+%=%=$;$=:$-%*;:*=%:%%-;",
"-&=-:-*;%$$;$:;$;$$&%=& @++$:&:*%**$:;Oo  ;;$:;%*;;*;-::;$%%*%%%",
":;%$:;-;*$&$-;$*$&:=**; @+*===$%$=*%$:%.O ;=:%*-*$&:-$--$$;*-*;=",
":--$$&-*:%%&$%%;;:=-=$O+ *:;=%---%;%$**-...%%-;%&%*=-%%;*$$**-:&",
"=:*;&-:%*;-%-;=*;%%=$=X +:=::&--%:&$%;;-o.o**-:;*:=$*-%*-=$*=:-$",
"$&=-%&-$=%:=:*$;:%*-%$oX@;$;:%&;;=;$%*&*+.o&&%&%==;&:&=%;$;$;=*$",
"**-$%:*%*-%*;=*%*;::%;O @:;%-$%*$*==-**:o#.-=:**:::=;$=$%=--$=;=",
"&$%%-;;-%&$%*==-;*:$%=OXO:*:$::;-=&;--**X+.&=$;%::$%:-==:$$=&%=*",
"=&-;=%&&&&:-&&=:%=%*&:=X+.:&&$&&=*:$*=;o+O&&:%&-&:;:%*;:$:-;*::*",
"*&*$***-;$:*-:;-%:=**$:@o X*-:%=%-=*-;Xo  %-%$=&;;;*:-%%&=%%*%-=",
"$*-%$;==:;:&$&$$;--:*%-*oX .#;==-$==@#.@ &$%&*&;-&&=&%&::%=;=$&*",
"=-$&%$=$$-*:&%$:&;=$%&%*;X .+XoX+@O@.OX.$;:;-*=*%*--;:*$%&*$*;=;",
"=$&-%-=-;$%$$=-;==;;-%;;&$$@.X.o  . ..$-;&-%-;*&-&%*%*$*%&%$:*$&",
"$-*$-;;%&$&-;=:-$=$;=:%*;=-%&+o#+.# **-=$*%;=$*$*$&&%&-**:=;--*%",
":&&-$-$-;:&=:-=%:%;*:&$=:*;%$$+X+#X;&&%-%*%&&-**:&=-%%-;=---&-*$",
"%:;;:-&$%&*::*=%&*;-=;:*-$%%-%o .Xo$$$====;-&&;:-;$&;-=$%=%;=:=-",
"%&;:;;%&%&:&*=&%=%;:&=;%-%&*&$ XOo.%-:*&;=-&:=%&*;*;==-:$&===:;*",
"$-$:&-&;--&;-$=**&&-;%&*=%=;$=X  ..-%-%=:*$%%&%:::;$-:;*:;%$-;*$",
"-:$-:=$%-;%:$%*-$-;*-$=:%$&;$=@.o o&%*-;$$$==;$&-=;$%%;-%&*$%;=-",
"$$*:-&$-;-*&%*:%%=&%*;*&$==$$& X@. *&:&=;:=:$;*-$--;$:-:-*;=%&%%",
"=-;&:-*=%=*%-*%;$&$&-$=:%;*%=%.#OXO%--;%&;*&=$&&$==%:;:*%**$&==-",
"$;*;:;;*;:;===;%%&:-*$;*;$$*--.X+.o%&$$%==-==&$;--*%&*%;-==-=:&;",
"$-%$**-**;;*:::&:&===$$$-*%$=@+..+X:;&-%*;::=%*=*::$%:*:&$$=%=--",
"%=%-:%*:-$;$-*-&$%=-;:$;&=O.O#X.+@O:;&&%;;$$:$-&;$$-&;;;$*:$*:=:",
";-%*;%*;==::-=;$%--*;;$:;#+#OX. +Oo&;;&=&=;:*:&**:$-$**=%;&*%=$*",
"=;:-;-*%%&&%*$$&&=*:&=$%-.+@  + #o+&&*-%=%=$&&$---*%%=-;;=&-&$*-",
"=-*$=;=;:&$:&&;=*$$==%:--;=;; X+++.-;*$;-;;::-::%=%*;=:%;*-&$&:$",
"*&*=$&$%*&=;$%%=&*&:&%**$&:%: o #O.$-*;:-:&&:$::*$$;;=%:=&=&$%-%",
":;=-%;;*:%$%=%:%:*=$=&:$$o.# +o@O+o%%%-:;-&-%=;;&*=:=;%%:&=%*-%-",
"=$$&$*&*:=$*-$*&;%;;=$%;=&@@o+ .OO+*;-$*%:%*:$:%%%=:%$;%;*%-%$=%",
"&:%$&&=*$==&$--:-%=*&;=:;oX.o++#  o*&=:%%;=-=&$%&:&:=&====$%-=%*",
"-=*:;%;**&-*=-&%*;;$==:=:-$$&o  .O#%%;;**-*%;:=$%:::$*$$*%&*$%--",
"%-=$&%;&=-%=*&*==&:$*-&-$&*:-X#O.X -%:*-=-:$&--**&::$=%;=%*:===-",
"%=$=--=;::=$=-==;;$%:=%-*+oo+.o@.  $;&$$$$%&==;$=$:-*;;;:;**%*&*",
"%;%:;%:;--;=;-&:=&-%;%$;&+#O#.# @ .--:$=%:-;$;--&&%;=;--*=&$;$*&",
"$-&=&--=$:&*;&;-&&=:$&*:&&+.#X##o..$*:%;=;*;&$&:-&:::&%-=%-:&$&&",
"*;=;:&$;*$$-*$$;**:%%-&%&&%-$%. OO.-**;;&;*&=;::;;%&$%-;=;$*==:-",
"*;&*=&=;$::*;$*=*&=-%=&:%&&&:=o.+..%&-&$=**=:=&:-&-:=$:==--;;::-",
":=%$&=:=-$;****&$&:-=&-$%$*-&*-...&*==*$:&%:$%$$-;-*&&*:-&$**%=-",
"%*&$$%:=%%%:$-;&%:%**%&$*&--$;-$--=;-%$-%:%$*-&**%$$=&$-=-$=::;*",
";%%=$$*=*%:&-::%-$=:%$$$&%-=$&**=:$%=;=-:=-&%;:&-&;$*=:;;$;=&%**",
"-;&&*&*=:*%*-%*%=%%;%*=-*=&&*&;*%%%:*-**%&%-;*;&$*%%%%=%***;;:&&",
";=;&*$=&=:*;:=-=$$:$&%====;$=&**=$-&&%::==::$*;$*-%%=$&$%$$&*;-*",
"&%:*&-*:$%-:&$%-&=*&*&--*&:;&;;:;---$-:$;*:%&-&%*:%&:=*$$%:*=-;:",
"*=;=*-&:;-*-$**&=&-$;;$&;%&*-;=:%-&$--*$&$:--*$=-=;-%;-*;:=;-:-=",
"*$=-:*:=*:*=;*:%%;$%&$*====;=*;:*%:;$:;&%&%:-*;&*%%:;-;$--=%-;;*",
"=-:$;$*%=&==;%%=;%=-%*$:-*:-%=:%&=-;&::=:=:*%$=-%;$=%*-$*=$$;:==",
"=;=;*&$;$%=;*=$=%%%$=%*=$=&=-$-=:%=%&&%&*&$%$$:&%;=%;*&$$;$;:%=:"
};
