/* XPM */
static char *result[] = {
/* columns rows colors chars-per-pixel */
"64 64 24 1 ",
"  c #464646",
". c #474646",
"X c #464746",
"o c #474746",
"O c #464647",
"+ c #474647",
"@ c #464747",
"# c gray28",
"$ c #9C5A3C",
"% c #9D5A3C",
"& c #9C5B3C",
"* c #9D5B3C",
"= c #9C5A3D",
"- c #9D5A3D",
"; c #9C5B3D",
": c #9D5B3D",
"> c #B4B4B4",
", c #B5B4B4",
"< c #B4B5B4",
"1 c #B5B5B4",
"2 c #B4B4B5",
"3 c #B5B4B5",
"4 c #B4B5B5",
"5 c gray71",
/* pixels */
">2>24432223,1,133<>4<<32>251<,,>>2<,344>,,523<211>>>>,5<5>3<451>",
"1<2<53<2421<2>3<,,>243425>11452,11,433>><,5<3,3<324,<2434>1334>4",
">215,3<<1,>13<145,32,>4><>23414>>>5<54,214>,2>1,21,2,53>>5<,>1>1",
"3,<>>445,3>,5441>3<>4123><3<<,5,<2,>54,2,32><34225,<<>5>><3><2,>",
"<<,<<13441211>,,<124<21<,3<>1>3543,,1<25<>42><<11,5>>,>,3>553223",
"45,114,251<,3322,<2<5<>2,3212>452<><,15,1,52<<<4121,>55<>5212,<1",
"115<>1><>5412>5312<3>2452223,,515,<2324,<232>2,>241,5,>,,,3>434>",
"14<3>25<541<2<3<24553><133<4<44342<2345,>5<>15,4,35>>3><<,1242>>",
"1><>12454<>2,<>2243,3,>>4,3355>53>22314>22,,21,1521<>,<<321<225>",
">42,2>325>>5513533,1<>21,5,>1511,>44,,41>53324445443151,44414,55",
"5<4<4332>4<1<1,4,>4125>,142<5422<2334323544<351><5144,,><4533<11",
",4,51554><<33,2545>,5<512344>1<444,,>3>,55>5<4542,><,45<43353<<>",
">>1>3,1<>35,3344,443<<5,<411><5>1221,,44,341>4,2<24325>33222451>",
"1<<><42,<2<1,1,141>4><<>,,5>12211,425312<2>1>42<,11,>52,4,,5>2,5",
"5><>4,521<421145415<421<44>,1<1435><53>2<><13><2>>>5>>,,52,4>,45",
"1,>3>112<>,,1<<5,<>325<251 X. . . ...X <<3>,2351>34251>35>,125,>",
",3<>1>4121,25>,<1,,,<.X   &*$=-;X;:$&*& . ++>432,4>4>4>,333>,353",
"<,4,,534<4>31<>51,4 O&$-$;-%:--%.=-*;*&%&:;;  2,231>,122<,<12,24",
"14<><,<24,>5>51>1Oo**;;-%%;$;;=:#*;-$&%%;&&;:&  >1,>5,><>2522,,,",
">11<1,3>2,2<332@X*$=-%$-%:$$&-$& :*&&=;=:-*-;;::  ,2>41544334345",
",3252433<<453>+$$&;-&&;-%*%%=$*-@:&;==$%;:%;$;=-;$ 51>3,4,5,3343",
"1,><14<225>32X%-==;*&%=====:-%&-X%;*&&--$:$;$$==;;; >2>1>45>1<32",
"351>1>,>332,#$%*$&$=::;-*-$$$-&$+:;&&:*-&:%=-$=%:%$- 2235,>>14,4",
"3,222212>15X**-$$=&-=%%=%=:;-*$&#;;&%$=$*=-:%=*&%:=%-O4>35>55341",
"1,,<>><<44>@;&$--:--==;*;$:&&-$$.*:%$;-%$;-=&$-*-&:$= 1<<4111<>2",
",4>,3<<3352.*;*$;*%&:%%*%;&$%:;$X*:&%-&=-==:*:;&$=-;$O>>24221135",
"24<24><5<14@%=%;;%&$;$%=;*::;%==#-**=:$%%-$%*%:=*:*%; 22513>421<",
"523<>>,1>5>.$=::;;$:;$;*%$:$---=.;;=::*-&*%&&===%&&=$X,2>>,<2>3,",
"5,<34>2<<3,.&&%$-$&;;$-&==-=*&$:+:&=%&-$:%-&--%=$--:$#12154,1<>,",
">1><>,>1124#:&-%%-%-:=;=$&=:;$*$o*=:&:*-;-;%&&*%=$*=$@>4,>,4,523",
",>,<<3442,3.-:*$=&-&::*=%;-$$$&;O*&;*:=:%;%;&:&--;:=; 355452135,",
"5>15,>35521O%;::-;=$:%$:$$&;==*& =:&:$%*:&%;:=;:-::--+<<>2<3<142",
",>453,442<,o===&&%=&;&$&-$*&-===#%:%$;;$*-$-=*::$%%;&+>3<,2531<5",
"4>1<1<>4512#%*-;&;&;=;$:::$*--$$+%*&;*%$=--:-*%*%%%*- 32<>>434<,",
",2515>11,,5@*%=*==&*=;&-&$$% -*:X&:-+=-&$%*%-%-&;$-*-O54>52<533>",
"1>,35<212><.*&;*:%:;-&*=;**@ X%%+==+ X;*;=$%;*:%=&$$;.3>44>43>>5",
"343>>>>2<44+:$--==;--$$;*$$: =$:+&=:+:$$%&;;$$-&:&:--X5221><125>",
"53,5>544,,<+=;;$=*%$=:$&&:**%$=%O:=-==%*$-:*-::&&$-;&X>,1,33>,1<",
"1352,15<23<@%%$&-=-;&%:&;%$&-*;- *=:*$=:;*&*&;:&;&;=*.5>12,334,1",
"<4,,<3<4115X;:=*;;*&$$*-$*-&$;-;X;-==*%$:%=*%;%;;$%&%O><3>214<5<",
"4<45<>12,<4+*-%*$:&*;;:&$$%*%-==o$$&=*-*%===&;:$&=%$$ 255,<2,,52",
"2><11>>,52,@$===$%&&=$:*:::*-;$*O-:%=-$=$=*:&;=*=*&&&X11<,<<432<",
"443><,,><<4X:%**&:-;=&;*=$&;%*=-o;:-:-%-$:%&%%%$:%%$- 231<<1>21,",
",21>5<>1<12+;;;%*$:*&%;;**%:=%*=#=&&;$*:*&%-=*=:%=;:- 45>35,5211",
"2,2<5>>><>>+$=:&%:-&:*%=$:&$&$$%@;-&=*;=;%;%;&;*;%=:$.522<<5424,",
"44<5,<>>544 $*$*:-$:=$;:$*$*%%&%#&$=;$=;-:=%$;;%-;&%:@152<2<,>2,",
"41>1>5<<314#-&::;**;;%*$-;==$:&:#-*-*:;::=:;;:$&&::=$#,,>1,442,1",
"2<444<24535@*%&**;::-$=-&$%=*%&%+$%%&$&%*;&-=:%;&$%:% <4<4<5>134",
"4<2,,<>5>13@$$$-=:::&-%;&%;$$%=$O-$%$;::**$&&*$*=:$-%#3,2212,<41",
"<31<,2<>113+&&%-==%;%%$$%;%$:&-; %*%%$$=%&&$$&%==*$== 221<44>4><",
"232<>,4<233+*$&;-$%=:$;;:==$=:&&@$*%-=&%=:=%*&-;%;:-=O,11454,1>3",
">4><52<4245X+ ...    + o OO +o .@+ @ #O+o.O.#OO+#Xo O 5<145,5112",
"5415,,<<534<<133>4254<<424>14,445,<<1145<>,,<2<>2>,,232<<12<<,3<",
"1,,512415,3,2><<>2353>,22<<22><2341>5>>41515,1511,5>5>12>2>3<>,<",
",<,4132<>>1<51<,<>54<45214<53<1222<212<21<44221,<<<<12<14<,2>>1<",
"124><132531221332>1<4>5>1235222<11>41<>3<13,>5<5423523>,,512>522",
"5<4<122,1>5>>2,,,<1>,<1<>5><54><2>3<>>>1<32<<,,42444>,<<33>5,3>,",
"53>5542<4>53>1>,2>4>15>2,<541<,43<,1,<<42<>><<3<>,3>,2154<<<<1,1",
",21415>,<1<,2315,<2,<33<33>,4<4>,>335<3<3553>1>4>>1,,>45,211352>",
",5<<32>2,53>>1<>3,,>5<3,3452<1,<>43<>4,23>,<3>25>,<,43,<>2<1<1<>",
">>>2>5>>>1>>533>2>>,,421,522>>42<<,313<2535223<>>552<<<,>324,<,3",
"4<>51<53>42<,,54<5,3,5>22543>23<5<,>143>>25,>41<3,53<>1,4>><15<<",
",524>,115>,22>21>1<12,53<,,5>2>4,1,<53,55>,31>><45<35,>5<,>24<5>",
",45,<><3,>,<142<>32<,2>4<,,<2>2><<34<45>243,3>12,,1<452311>531<1"
};
