/* XPM */
static char *result[] = {
/* columns rows colors chars-per-pixel */
"64 64 8 1 ",
"  c #B4B4B4",
". c #B5B4B4",
"X c #B4B5B4",
"o c #B5B5B4",
"O c #B4B4B5",
"+ c #B5B4B5",
"@ c #B4B5B5",
"# c gray71",
/* pixels */
"      X  OX X O    + .. O + .O X@ O    @O@   XoXO@  O . .. X    ",
"O  X.      .. OO  o            oo  .X . OXX O   .XO    O   O   X",
"O. O  .  @       O    .@ X   .  OOO .X . O+X X      XOX  o    . ",
"O O   ..O   OO O o .       .     X  O        XO O .   .X X .   X",
"      O   .  X .   X  .   .   O XX X        O O. OO    .  .X @ O",
".O  .  ..O +.     . OX   X .   O O  X  .o.X    X  @ X           ",
"X+ O.@  O X    X  .  @.   O  OX X       O X O  X      XOOO   X O",
" XX    OX  .  X  X   OX   X @O OX   O .O .  XOoXO  .          .O",
"X# O   O    XOO  X  .   OXO    o . . OOoX         X         .. .",
"  X    O.   X .  O          .        .X       .    O X     @  O ",
" o +    X    O o. .    O.X    X      X . X o+ o    .    O     O ",
"  . .  XX @O      O  X     O    .X  XX +   OO   X #     X     O ",
"  O .     X  .    .   XX  X       O     X  O X @  O O OX ..X.   ",
".     ..   .XO  X  X           O X           .X   .    X        ",
"   .X          X .   O X      X    .    .    .   X  X .        @",
" Oo         O      X   .OX       O  @ XO                      . ",
"  ..  XX#  O  O O       .O. . + O X  .  oXX     X    O        ..",
"       X  .     .  .     O.      .X    +X  ..X O   .    X O@    ",
"O    . .      O O       .   O       O         O  ..     .X..    ",
" O O   O   .  X           O O.      X     X   ..   O .XO        ",
"   X  XX    X   OO O     X. O O.    @    .  X.  . X         XX  ",
"      .   O   O   XX  OOO  OX   OX     .   O    O X     .X   O  ",
".    X       .   .  oOX .     X    . X X   ..    O   X O    .   ",
" X ..X  .  X   XXX  X XXO     O .   X           O o O    O  .  X",
" .OOO    OX      OXOX.  XO X    ..   .      ... .   @ ..+     . ",
" O  .  X XO     .+ X       ..       .   X      O      . X       ",
" .        . o   O     XX.  X X .       O      O              .  ",
"   .   Oo@.            OX     . O           O O  X  X   X  X    ",
"  X   X       X  .    O      O  X  o      . .O . O  .       .   ",
"  .   X.         .       +.XX O             X     X     .      .",
"  OXX. X     O           X  X@    O   .  .  .X. oX.  X          ",
"        OO  XX X   . O  .    O  . .  X O.     X  Xo        . @  ",
"   +X XO  .XX.   . X   @XX  X . @    ..        OXO+ O   .O  O   ",
"   . ..    .    .. . ..O. X      o   .               o O    O   ",
"      .        ..      XX            XO    X     .# .X O X.     ",
" .  X     OX  X.O .O   X   XX  X       .O  .       XoOo.o O  X +",
"@ OO   oO .X   ..   .   .XX .@ . X XX    O X     .X.     X      ",
"OO  OO .XX       . X . @    .O XX.   o     . .  .  @  . Xo     X",
"         + O    . . .O  .  O .     .  X           O    .     O  ",
"        .  O  O   . X      X   X    .       X  X  .      .      ",
"   .O .O       .    @   O        O    O OX   O  . X ..        XX",
"O       O@      X    O  .O X .  o  X oX     XX         . O  X   ",
" .                  .    X O O       .     O O   X   O          ",
"  X        O.  . X  O    X.       X XO  O X        X XO X .  .O ",
" o   X   X      o .   O    XO  XX    .O.  XO     X  O           ",
"     OX + X.     X.     X                 X    X          X  .  ",
"  X X O X       OO  O  .  O   @.   .X   .   X X           . .   ",
"  O   X o       o    O  +  X     O    .X         O X.    O    + ",
" X.X   O .  O   .X.oX  X.       X. X    X  X       O      XX  . ",
" .O     o  .     X O    .oO OO        X XO   o XO       O      +",
".  o   XX      ..X ...   X    X @XO   O .  .    X O  .    O X.  ",
"    XO.  O . O   .  .    .    O.X  X         .  O O    O      X ",
" . X   X  .          X  o      .    O         +  ..        .  X ",
"    XO               X      OO.X   O  O     O  X    .    .O   . ",
"O       .O     .. .           O     OX     XXO O       O     XX ",
"   O    X + O  +      OX  .  O     ..   o O @.     O   Oo   X   ",
"    .   O.  o + o.           X X   O        .       O       .   ",
" ..O XOX  X O .  O   .   .         X  OOX       ..    XX+ X    .",
"     @O   . .O O  .   O  O      O OX  .        O X.  O ..       ",
"O   O     O          .    X.          X  X   O   X  .    .     X",
"X O .O Oo     .O    X X   .    @OOO.. .       .  .       o .O O ",
"  O   OO   OX         X         +O..       .   .X O       O   O ",
"..O        .       O .   +X    O O X    O  O    X      .  OO .  ",
"o   O      XX     O          .X     OO   X   X     +O .. X.X    "
};
