/* XPM */
static char *result[] = {
/* columns rows colors chars-per-pixel */
"64 64 24 1 ",
"  c #464646",
". c #474646",
"X c #464746",
"o c #474746",
"O c #464647",
"+ c #474647",
"@ c #464747",
"# c gray28",
"$ c #EC1C24",
"% c #ED1C24",
"& c #EC1D24",
"* c #ED1D24",
"= c #EC1C25",
"- c #ED1C25",
"; c #EC1D25",
": c #ED1D25",
"> c #B4B4B4",
", c #B5B4B4",
"< c #B4B5B4",
"1 c #B5B5B4",
"2 c #B4B4B5",
"3 c #B5B4B5",
"4 c #B4B5B5",
"5 c gray71",
/* pixels */
">,,<,3>4,<32153,,>3>>4<>>>>>,,2<>25>,4224>,,>2><>,414>4>>5>4><>,",
"52<2<25<,>31,22,2,>5,><32,><>,<,1>32>2<><>12>21>,2>>352211,>5,25",
"42,41533,42<5,,3,2<4,>>>13>:$*;%*=*;%*<<>24<4>2,23414>,25<2,2,21",
"53>>32<<><25>,,>52<222<*&*%:-==;*-:&=%*$=%2>>>2>25<>><<,2>1<23>3",
"1>2,>21235<1<3<4>2>2=%&*;;&;*-$:&-=*--&&*%**:5>,3124<>>121,>>>23",
"241221,1<4>2>25212%=;*&&=$:;&*$%-$-*==-:&$%$=*-2<,>3111,1<3,,3>>",
"5>,2,2>>>5<15<,2=-:%=-;*-%%:-$:;=$**;;%-:%-%$$=:&>32322<24<55>>4",
"2<4>>2,2>5>312>&::%==&=;%=*-*=:&$=&&--=$%:*=&*-&=%5>,2434<>2>>,<",
",41<1,41>2,152;%*=$**;$*-=::=-%-;;-:%&**&=$-=:%$-$:>,><4,1<,453,",
">454,<1>3>2,=:;:-$%*-$%%*%%:*%%&;$*:%*-;$-%$;:%&&;-&=>123>>,>>21",
"42>>3223<2>%$=:$%$:*&$%=:%%%:;%*:%*=$;*&**;&$%$;=&%-&$2152>13<24",
"1>12>>2><2=;;$%-*%&*:%$;=%%--:&*;*$&&-:;=;-:%$*%$=*&*;;>14122<<2",
"1>,>32<5>&-=;$$;;-&=-;-==%$;*;*;;=%-$;*%;::=*:%-%$-::%:*3>,2>><<",
"221153>,,&*;=::&===%;=*$$%=&:-&*:&&-%:-*:*&$:::&==%&;:$=>>><4>,2",
"1>1,44<>%=:--$**==&$$$;;&:-&%$-$:&**--;-:&&:--%;$**--%=-;<<32>3<",
">>>1>23;;;*%;$%%:;%:=:**::%%-&;&:$$-%=$$&=-;$;%*$==;$&:&&;>>>,>,",
",144>>;%::*-%***:--::$-&&:;%%&-;*:%-=::-:;;$-$*:%$-:%%-*%-$>,,34",
",>>1<>-*=-%&&:$;=$=:-=&%$%%$*===&%&=%:;%:*-*---:*&&$$-*---$3,>3>",
"3,2>2==;*$:*$*;;$*=*;&:=*;&;=:=*-*;&:=*;-:=-=*==%&::;%&%$**&<235",
"<3,<,-$:$-;;;:--:&$$*$&-;;-$*&*$--$:==$:&&%*;%:-:%=%%:%;%%;=<411",
"3>1<%*;=&%=%-*-%*$%$::-$*;%%:&*$*=$=:%-;%:;*=-:$=&=&-$%-=%&;*3,>",
"235>&&-&&$:=&**$$:==*-*-$;%=:&*-$=:=&:=*=-%-%;%*=*&$=%**=;$%=>3<",
"12>2$:-% oo @O+XOXXO# @ .+@o ++oOo o@.O+o#.o O #o#X+XO=*&&&%$<,<",
"45>*&;-:XO OOO#.X O .:=-=;*$--*-=-%-&$=%-*.@o@+oOO O+;&%;:-==$,1",
",>4=-$-==..#@OoOXOO@*-==-:=%:=%&&;%::%$*::.+@o#OO@#X&=:&=%%-*$<,",
"1>4*=;=&$* O..+X+O.#$*&-$$$$=&&::%:*::==-&-O .+ .+ X--$%&*$:**4<",
">2>;:&$$-%-%.@OO.O*$;:*=:%-::&$%;:%*=:-$=%=%:%&$:&&;-*-=%&%;-$><",
"><:&:=;;%=-&*%*=-;=$*$;&%;$--*=$&%;*-*&-;$%&%%$$=*=&*$%:-;$;$;%<",
">>%$:;$%-%;$;*$*::$*&=$;:%=$*-=-;%=*;**$-**=:=&:$&*=;$-:-%*&:%=,",
">3&:-;$:%=-*$--*;*%&***%-$:&-;%&-%-$;$---;:;&%=-:*$-&&=-;;;&-*:>",
",>*%$*&$*****=%-&$%:*::&:-$;%;$-&;;&--:*;%$--*-&*%:&&%%;&&=$-=*2",
">3:*=%==:=&**-%%%$-==*%=$:*%$$;%$%$:$**%&&$&&$:$%$=%&$;$*;:;:=*<",
">3;%&*:&%=$%;;;&-&:$%;**%$;&-**&%*=*-$*=*%*--=*:-;&=-**:$*&-**&,",
">>*=&*&&-*:$**=$;*$=;:-&=::;*=;=$--=%%=&=$-&*:*$;&&-*=:-$*:;$&$<",
"22=;==$:%*$$&*-==:&:*=;;$;%=*$$*:--%-$$:&*:--:;&%;:=$-;%$%:=*$;<",
"2,;$*;%;%&;-=*=--$%=-:&--*&$%=$&*;:%::-$=-%**$:-=**;-$$%;&;*%%*<",
"33;**=:%%$;--:*-=&%--%$=*-&%;:=%$-;-;=;;$==%:&--%%&$%&%&$=:%$%%>",
"><$;%**%$$::&*&-&%$---%&$*%%;&-$-%:=$%&&=:&*=-;-:=-*-;-%*%&=$-&<",
">,,&$:&;$;$%-&-*-**-=$$%*&-==*%-=;%&&;%&*$;-:%%;$;*%%:%=-;:=$=><",
"4<<=:;-%&%:=*$=%;%$$:&=%%-;=:--;::%=*%&-&:&&&%&-%;;;$*=*&=$=*$,<",
"<>>&-=$=$&-=*:-*$=$:%:&&&$$*:;*;;%;:%*$*&-  *;:$=-&%-*&=*%&%-%22",
"<25--;%$%%=$*;;=%*.*-&;-&$*=;:$:%$&&$-&&:+O%&-=;$$&=%*&=&=%%=*4<",
"3<>2;&*;=%:=&%:;%&*#X=$$&*&-::%-*:$&$%=O+O;*$&$%%:%:$$&%-&*&*31<",
">,><%%-;-;%-%**;&$-$=X#;%:;--:-%*&&.o+ -&::$;:&%:*-;%%-:&*;*=>>2",
">1>,:;**$&&;::&&$-&*&=$. O=:$%$@#oXO$%%*%&**;-$=$;=$%=%;$%**$1<4",
"2<4>>-;*$-;-$*:&-&;&:-*;*&o+ oO*$*%;$$-&-%%=%:%;=;&&=;=%=:$:,<22",
"<4,4<$$;&$:*:$=&&;$:&%;%&$%;&$*;*-;&:==$-;:%$$-;&**$:&=%%&*&>2<,",
"2,,2,<;%&$&;;-:=$$%&*-:=%-*:;:-*=*$;;:=-:*:&&;%%$&&$::%;-;*2<,24",
"1153,5:*;:%=;==;:-:%--%$:&$==$;*&%$&;--%;:=-;-==:$=&$&=;&-;>14,,",
"123<,2>***;*%$**;&==::*%=-$:;$&==::$;&&%&&&$;$-*%--$==;*-;1<2312",
"3>>54>>,$%:%;-:=&---=:=-=$$-;;*;=-&:;-$%$::*=%%&&$%&=$;*&>>,>42<",
",211<3,31%:=&=;;;$=$;=%$=$-%=&=:$*-:*-*:;&;;=;-$=-%==--:<>1<1>><",
"<>2,5<,,3*&&=;$=$-$$%&$%=-%=$==*-=&;$=%&$-&&**%:$*&-&$%%35><<,,<",
">,>2<,34,4%*:-&*:-%:-===-=-$$*-=-:=%%;:*&$---::*-:***=%3,4>,23,>",
"<>>>41>1<>>--=*%:*:&*--$-==-%=;=%**%%%=$-==$-=&*::==%%,,5>5<4<3,",
"<3,,>132>24>%&%&;:=*==-=$;%--:==;%&%%==%*;-$-%$*&**==>1><1,<<><3",
"21>5>>>,22,<,>;$;:%%&%::::&$$$%;%=%%:&$=-=%=%*;&&;:,>>41>1>1<><,",
"<53>,33,2>,41>1*-*&&%$%*$:;-&$=*$%-=-*:*&$;&:$$&-;>>423<5>5<,<>,",
"3>3<<2555,><,>3>%*$:;-:%;%=;--$&==**=*-;***&$-;$$,>22,>>522145,>",
"2<>4<,,3,,2,22,>2<&%;%:**$:;*;%*-:*%;=*===&%=;%>>>43<><>,4<>22,<",
"4,>>2,,4<>221,3<<,1>:;:;==;&;**:-=-*-$:=%-:%&52>>2<1>2>4>><2,3<3",
"<12342<3253<1<>,<,2<>>4=%$$*$*==:$-*;;&-&-,<>>>434>><>44,,>1>>2>",
"3><,12<3,1<3442,,4>,>>>2><4:%*===%$%::2<2<111><,3><2>,<<2>35>,2>",
">43,>,4,<>2>,1>2,2,<<<312>><>>>>,2,,,2>21,32<3>>>2<3><>,4>>>1,>2"
};
