/* XPM */
static char *result[] = {
/* columns rows colors chars-per-pixel */
"64 64 7 1 ",
"  c #546C8E",
". c #556C8E",
"X c #546D8E",
"o c #556D8E",
"O c #546C8F",
"+ c #546D8F",
"@ c #556D8F",
/* pixels */
"XXXXXXXXoXXXXXoXXXXXXXXXXXXXXXXXXXXXoXXXXXXXXXXXXXXXXXXX+XXXXXXX",
"XXXXXXXXXXXXXXXXXX.XXXXXXXXXXXXXXXXX XXXXXoXXXXX+XXXXXXXXXXXXXXX",
"XXXX XXXXX+XXXX+X+XXXXoXXXX XXoXXXXX+ XXXXXXX+XXXXXXXXXXXXXXXXXX",
"XXX XXXXXOXXXXXXoXXXXoXXXXXXX XXX.XXXXXXX+X XXXXXXXXXX XoX XXXXX",
"XXXXXXXXoXXXXX XXXXXX+XXXXoXXXOXXXX XXXXXXXXX XX+XXXXXXoX XX+XXX",
"XXX@oXoXXXX XXXXXXXXXXX+X@X XXXXXX+XXoX+XXXXXXXX XXXX XXXX XXX X",
"XXXXXXXoXXXXXXXXX oXXXXXXXXXXXXXXXXXXXXXXXX@XXXXXXXXXXXXXX XXXXX",
"XoXXXXXX+XXXXXXXXXXXXXXoXXXXXXXXXXX+X XXXXXX XXX XXXX+XXXXXX XXX",
"XXX +XXXXXXXXXXXXXXXX XXXX +XXXXXXXX+XX XXX+XXXX +XoXoXXXXXX XXX",
"XXXo+XXoXXXXXXX XXXXXXXXX+XXXXXXXXXXXXXXXXXXXXXXXXXXXXoXoXXX+XXX",
"X+XX+XXXXXXXXX+XXXXX oXXXXXXXXXXXXXX XXXXXX XXXXXXX XXX X XXXXoX",
"oXXXoXXXXXXX.oX+XXXXXXXXXXXXX+XXXX+XXXXXXXXXXXXXXXXXX+XXXXXXXXXo",
"XXXXXXXXXXoXXXXXXX XXoXXXXXXXX+XXX X+XXXXXX+XXXXXXXXXXXXXXXXXXXX",
"XXXXXX XXXXoXXo+ XXXXXXXX XXXXXXXXoXXXXXXXXXX XXXXXXXOXoXXXXXXXX",
"XXXoX XoXXXXXXXXXoXXXXXXXXX+XXX+XXXXXX+XXXXXXXXXXXXXXXoXX+XXoXXX",
"XXXXX.X+XX+XXXXXXXXX XXXoXXXXoXX XXXXXXX+XoXXXXXXXX+XX X+oXXXX+X",
"XXX+XXXXX+XXXXXXXXXXX+XXXXXXXXXXX XXXoXXXXX+XXXXX+XXo+XX+XXXX++X",
"XX XXXXX XXX+Xo+XoXXXXXXXXXXXOXXXoXXXXXXXX+XXXXXXX XXXXX oX XXXX",
"XXXXXX+XX+XXXXoX XXXXXXXXXXXXXXoX+XXXXXXXXXXXXXXoXX X+XXXXXXXXXX",
"XXXXo+XXXXXXXXXXXXXXXXXXX+ XX@XXXXXXXXXXXXXXXo XX+XXXXXo XXX XXX",
"XXXXoXXXXXXXXXXXX XXXXXXXXXooXXXXXXXXXXXoXXoX XXXXXXXX+XXXXXXXX ",
"XXXXXXX++XXXXXXXXXXoXXXoXXXXXXXoXXXXXXoXXXXXX X+XX X+X XXX+XoXXX",
"XXXXXXXXXXXXXXXXXXXXXXX oX XX+XXX o+XXX XXXXX XXXXXX +XXXX+XXXXX",
"XXXXXXXXXXoXXXXXXX+XXXoXXXX X+XXXXXXoXXXXXo+XXXX+XX XXXXXXX XXXX",
"XXXXXXXXXXXXXoXXXXXX+XXX +XXXX+XXXX+XXXooX+XXXXXXXXXXXXXXXXXXXoX",
"XXXX oXXX+XXXXXXX.XXXXXXXXX XXXoXXXXXoX XOXXXXXXXXXXXoXXXXXXX.+X",
"XXXXXXXXXXoo XoXXXXXXXXX XX+X  XoX XXXXXXXXXXoXXXXX+XX XXXXXXXXX",
"XoXoo XXXXXXXXXX XXXXXXo+++XXXXXXXXXXXXXX oXXXX XXXXXXXXXXXXXXXX",
"XXXXoooXXXXXXXXoXXXXXXXX+XXXX XX+XXXXXXXXX+XXXXXXXXXXXXXXXXoXXXX",
"XXXXXXXXX XXXXXX+XXXoXX XXXXXXXXXXXXXXX XXXXXoXXXXo+XXX X XXXXXX",
"XXX+XXXXXXXXXXXXXX XXXXXXXXXXXX+XXXXXXXXX+XXo+XXX XoXXXXXXXXXXoX",
"XoooXX+XXXXXXXoXXXXXXXXXXXXoXXX+XoX+XX+XXXXXXXXXX++XXXXXXXXXoXXX",
"XXXXXXX XXXXoXXXXXoXXXoXXXXXXXXXXXX+XX XX+X+XXXXXXXXXXX XX XXXXX",
"XX XXooXXXX XXXoXXoXXXXXX XXXXXXXXX XXXXXXXXXXXX XXXXXXXXXXO  XX",
"XXXXXXX+XXXXX+XXX+XXXXoXXXXXXoOXXX+XX+XXXXX+XXXXXXXXXXXXXXX+X XX",
"XXXX+XXXXXXX+XXXXXXXXXXXXXXoXoXX XXX XXXXXXXXXXXX XXXX XXX XXXXX",
"X+oXXXXXXXXXX+XoXXo XXXXXXXX+XXXX+XXXXXoXXoX+XXXXX+XXXXXXXXXXXoX",
"XXoXXXX XXXXXoXXX XXX+XXXXXXXXXXXXXXXXOX++oXX +XXXXX XXXXXXXXX+ ",
"XXXXX+XXXXXXXXX XXXXX XoXXXXX XXXXX+XXXXoXXXXXXX+XXX X+XXXXXXXXX",
"XoXXXXXXX+XXX X XXXXXXXXXXXX X+XoXoXXo+XXXXXX+XX+XXXX++XX+XX XX+",
"XXXXXXXXXXXXX XXXX XXXXXXXXXXXoXXXX+XXXX XXXXX+XXXXoXXoXXXXXX+XX",
"XXX XXXXXXXXXXXXXXXXXXX XX+XXXXXXXOXXXXXXXXXXOXXXXXXXXXX+XXXXXXX",
"XXXXXXXXXXXXXXX+XXXXXXXXXXXoXXXoXXX+XXXXXXXXXXX XXXXXXXXXXX XooX",
"XXXXXXXXXXXXX  XoXXXXXXXXXXXXXXXXXXXX+XX XXo XXXXXX+X+XXXoXXXXXX",
"XXXXX oXXXXXXXXXoXXXoX oXXXXXXXoXXXX+XXXoXXXXXXXoXXX.XoXXXX XXX ",
"XX X+XXXXXXXXXoXXXXXXXXoXXX+XX+XXXX XoXX+XXX o oXXXXXXXXXXXXX XX",
"XXoXXXXX XXX X+XXX XXoXXXXXXXoXXXXXXXXXXXo+ XXXXX+XXXXXXXXXXXXo+",
"XXXXXXXXXXXX XXXXXXXXXOXXXXXXXXXX XXXXXXXXXXXXXXXXX XXXXXXXXXXXX",
"XXXXXXXXXXXXXXXXXXXX XXXX+XXX XXXXXXXXXX +XXXXXX+XoXXXXXXXXXX XX",
"XXX+XXOXXXXXXXX +X XoXXXXX+X XXXXXX XXXXXXXXoXXXXXXXXXXXXXXXX XX",
"+XXXXXX+XoXXXXXX+XX XXoXXXXXXXXXXXXXXX XXXXXXX XXXXXXX+XXXXXXXXo",
"XX XXXXoXX+XXXoXXXXOOXXXOXXXXXXX XXXXXXXXX+XXXX XXXXXXXX X +XXX ",
"XXXXXo+XoXX XXXXXXXOXXX XoXX+XXXXXXXXXXXXXXXXoXXXooXXX XXXXo XXX",
"+ooXXoXXXXXXoXX X XX+XXXXXXXX+ +XXXXXXXXXXX XX@XXXX XXXXXXXXXXXX",
"XXooXXoXo+XXXXX XXoXXXXXXX+oXXXXXXXXXXXXXXXXXXX  oXXXXXOXoXXoX+X",
"XXXXXXXXXXXXX+XXXXXo oXX+XXXoXXXXX XXXXXXXXXXXXXXXoXXXXX oXXXXXX",
"XX+XXXXXXX+X+XOXX XX+XXXXXXXXXXoXXX+XXXX  XXXX XX+XXXXXXXXXXXX+X",
" XXXoXXXXXXXXXXXXXX+X XXXXX XXX XXX XXXXXXXXXXXX+XXoXXXXX+X+XXX+",
"XX  XXXXXXXXXXXXXXXXXXXXXOXXXXXXX+XXXX@XXXXXXX  XXX XXXXX+XXXXXX",
"XXXXX+XXXXXXXXXXXXXXXXXX XX@oX+XXXXoXXXXX XXXXX+XoX+XXXXX+XXXXXX",
"XXXXXXXOXXoXXXXXXXXXoXXoXXX+XXXXXXX+XXXXX XXXXXXX+XXXXXXXoXXX ++",
"XXXXXXXXXXXXXXXX XXXXXXXXoX.XXXX X XXXoXXXXXX +XXXXXXXXXXXXXX+XX",
"XXXo++ XXXXXXXX+oXXXXXX XXXX@X+++XXXXXXXXXXXXoXXoXXXXXX XXXXXXXX",
"XX XXXXXXXXXXXXXXXXXXXXXXoXXXXXXX XXoXXX+XXXXXXXoXXX+XXXXXXXXXXX"
};
